<?xml version="1.0" encoding="UTF-8"?>
<svg width="48px" height="48px" viewBox="0 0 48 48" version="1.1" xmlns="http://www.w3.org/2000/svg" xmlns:xlink="http://www.w3.org/1999/xlink">
    <title>icon/general/view/accuracy-check</title>
    <g id="icon/general/view/accuracy-check" stroke="none" stroke-width="1" fill="none" fill-rule="evenodd">
        <path d="M26,4 L26.0008034,8.12388771 C28.2591923,8.40562076 30.3713965,9.15802535 32.2361532,10.2798387 L29.2898279,13.2258492 C27.6940581,12.4408826 25.8985159,12 24,12 C17.372583,12 12,17.372583 12,24 C12,30.627417 17.372583,36 24,36 C30.627417,36 36,30.627417 36,24 C36,23.831296 35.9965187,23.6634051 35.9896239,23.4963953 L39.4937887,19.9916895 C39.6625327,20.6458415 39.7909425,21.3162025 39.8762078,21.9999622 L44,22 L44,26 L39.8761139,26.0007904 C38.9733324,33.2375888 33.2375888,38.9733324 26.0007904,39.8761139 L26,44 L22,44 L22.0002073,39.8762383 C14.7629383,38.9738595 9.02670909,33.2379214 8.12388609,26.0007904 L4,26 L4,22 L8.12376167,22.0002073 C9.02618194,14.7626058 14.7626058,9.02618194 22.0002073,8.12376167 L22,4 L26,4 Z M38.5857864,9.58578644 L41.4142136,12.4142136 L25.4142136,28.4142136 L24,29.8284271 L16.5857864,22.4142136 L19.4142136,19.5857864 L24.001,24.171 L38.5857864,9.58578644 Z" id="icon" fill="#FFFFFF" fill-rule="nonzero"></path>
    </g>
</svg>