<?xml version="1.0" encoding="UTF-8"?>
<svg width="48px" height="48px" viewBox="0 0 48 48" version="1.1" xmlns="http://www.w3.org/2000/svg" xmlns:xlink="http://www.w3.org/1999/xlink">
    <title>icon/auxiliary-input-disconnected</title>
    <g id="icon/auxiliary-input-disconnected" stroke="none" stroke-width="1" fill="none" fill-rule="evenodd">
        <path d="M41,4 L44,7 L39.5767106,11.4254566 C39.8511513,12.2333678 40,13.0993011 40,14 L40,14 L40,36 C40,37.1045695 39.1045695,38 38,38 C36.8954305,38 36,37.1045695 36,36 L36,36 L36,15 L28,23 L28,34 C28,38.3349143 24.5521622,41.8645429 20.2491793,41.9961932 L20,42 C17.0207782,42 14.4219162,40.3714861 13.0450378,37.956082 L7,44 L4,41 L41,4 Z M24,27 L16.1014078,34.898918 C16.5093055,36.6752011 18.0999411,38 20,38 C22.209139,38 24,36.209139 24,34 L24,34 L24,27 Z M18,18 L18,21 L10,29 L10,18 L18,18 Z M16,14 L16,16 L12,16 L12,14 L16,14 Z M32,6 C32.3197325,6 32.6350841,6.01875683 32.9450145,6.05523016 L24,15 L24,14 C24,9.66508574 27.4478378,6.13545713 31.7508207,6.00380682 Z M14,6 C15.1045695,6 16,6.8954305 16,8 L16,12 L12,12 L12,8 C12,6.8954305 12.8954305,6 14,6 Z" id="Combined-Shape" fill="#FFFFFF" fill-rule="nonzero"></path>
    </g>
</svg>