<?xml version="1.0" encoding="UTF-8"?>
<svg width="80px" height="80px" viewBox="0 0 80 80" version="1.1" xmlns="http://www.w3.org/2000/svg" xmlns:xlink="http://www.w3.org/1999/xlink">
    <title>component/cranial-head-side</title>
    <g id="component/cranial-head-side" stroke="none" stroke-width="1" fill="none" fill-rule="evenodd">
        <path d="M40.1231056,8 C53.3779396,8 64.1231056,18.745166 64.1231056,32 L64.1231056,36 C64.1231056,33.790861 65.9139666,32 68.1231056,32 C69.8479492,32 71.2462113,33.398262 71.2462113,35.1231056 C71.2462113,35.3784564 71.2148948,35.6328434 71.1529631,35.88057 L68.6081769,46.059715 C68.3230972,47.2000338 67.2985193,48 66.1231056,48 C65.0185361,48 64.1231056,47.1045695 64.1231056,46 L64.1231056,44 C64.1231056,51.5541753 60.5664458,58.6674948 54.5231056,63.2 L52.123,65 L52.1231056,72 L28.1231056,72 L28.123,65 L25.7231056,63.2 C19.6797654,58.6674948 16.1231056,51.5541753 16.1231056,44 L16.1231056,46 C16.1231056,47.1045695 15.2276751,48 14.1231056,48 C12.9476919,48 11.9231141,47.2000338 11.6380344,46.059715 L11.6380344,46.059715 L9.09324813,35.88057 C9.03131647,35.6328434 9,35.3784564 9,35.1231056 C9,33.398262 10.398262,32 12.1231056,32 C14.3322446,32 16.1231056,33.790861 16.1231056,36 L16.1231056,36 L16.1231056,32 C16.1231056,18.745166 26.8682716,8 40.1231056,8 Z" id="outline" stroke="#5E8095" stroke-width="2"></path>
    </g>
</svg>