<?xml version="1.0" encoding="UTF-8"?>
<svg width="48px" height="48px" viewBox="0 0 48 48" version="1.1" xmlns="http://www.w3.org/2000/svg" xmlns:xlink="http://www.w3.org/1999/xlink">
    <title>icon/general/plan/crosshair-image</title>
    <g id="icon/general/plan/crosshair-image" stroke="none" stroke-width="1" fill="none" fill-rule="evenodd">
        <path d="M26,4 L26.0005404,7.11646961 C32.3991481,7.86655183 37.7114747,12.1700238 39.9110492,18.0004148 L35.5358998,18.0006161 C33.6620567,14.4048541 30.1563374,11.7949592 26.0008357,11.1530254 L26,16 L22,16 L22.0001641,11.152871 C16.4217914,12.0141618 12.0141618,16.4217914 11.152871,22.0001641 L16,22 L16,26 L11.1530254,26.0008357 C11.7949592,30.1563374 14.4048541,33.6620567 18.0006161,35.5358998 L18.0004148,39.9110492 C12.1700238,37.7114747 7.86655183,32.3991481 7.11646961,26.0005404 L4,26 L4,22 L7.11635209,22.0004624 C8.02915926,14.2097285 14.2097285,8.02915926 22.0004624,7.11635209 L22,4 L26,4 Z" id="crosshair" fill="#FFFFFF" fill-rule="nonzero"></path>
        <path d="M42.4285714,22 C43.2928571,22 44,22.7071429 44,23.5714286 L44,23.5714286 L44,42.4285714 C44,43.2928571 43.2928571,44 42.4285714,44 L42.4285714,44 L23.5714286,44 C22.7071429,44 22,43.2928571 22,42.4285714 L22,42.4285714 L22,23.5714286 C22,22.7071429 22.7071429,22 23.5714286,22 L23.5714286,22 Z M35.864,35 L31.864,39.5781991 L29,36.521327 L25,41 L41,41 L35.864,35 Z" id="image" fill="#FFFFFF" fill-rule="nonzero"></path>
    </g>
</svg>