<svg xmlns="http://www.w3.org/2000/svg" width="167" height="89" viewBox="0 0 167 89">
    <g fill="#273740" fill-rule="evenodd" stroke="#95C1DA" stroke-width="2" transform="translate(1 1)">
        <path d="M100 0h26c2.21 0 4 1.79 4 4v16h0-34V4c0-2.21 1.79-4 4-4z"/>
        <g>
            <path d="M0 0L48 0 48 12 0 12z" transform="translate(89 20)"/>
            <path d="M4 0L44 0 44 12 4 12z" transform="translate(89 20)"/>
            <path d="M10 0L38 0 38 12 10 12z" transform="translate(89 20)"/>
            <path d="M18 0L30 0 30 12 18 12z" transform="translate(89 20)"/>
        </g>
        <g>
            <path d="M0 0L48 0 48 12 0 12z" transform="translate(89 59)"/>
            <path d="M4 0L44 0 44 12 4 12z" transform="translate(89 59)"/>
            <path d="M10 0L38 0 38 12 10 12z" transform="translate(89 59)"/>
            <path d="M18 0L30 0 30 12 18 12z" transform="translate(89 59)"/>
        </g>
        <path d="M164.334 34.5v21.886c0 1.1-.888 1.993-1.987 2l-92.018.581c-3.347.022-6.603 1.092-9.31 3.06L46.014 72.94C43.28 74.929 39.985 76 36.604 76H8h0V14h28.241c3.605 0 7.103 1.217 9.93 3.454l14.647 11.592c2.826 2.237 6.325 3.454 9.93 3.454h91.586c1.105 0 2 .895 2 2zM137 63H146V69H137z"/>
        <rect width="16" height="8" x="146" y="62" rx="2"/>
        <circle cx="153" cy="43" r="4"/>
        <path d="M13 56h22l-3.104 24.058C31.384 84.028 28.003 87 24 87s-7.384-2.972-7.896-6.942L13 56h0zM16 5h16v23c0 4.418-3.582 8-8 8s-8-3.582-8-8V5h0zM131 30h12l-1.696 13.213C141.026 45.378 139.184 47 137 47c-2.183 0-4.026-1.622-4.304-3.787L131 30h0z"/>
        <path d="M24 82c2.21 0 4-1.79 4-4s-1.79-4-4-4-4 1.79-4 4 1.79 4 4 4zM24 31c2.21 0 4-1.79 4-4s-1.79-4-4-4-4 1.79-4 4 1.79 4 4 4zM24 18c2.21 0 4-1.79 4-4s-1.79-4-4-4-4 1.79-4 4 1.79 4 4 4zM0 14L7 14 7 76 0 76z"/>
    </g>
</svg>
