<?xml version="1.0" encoding="UTF-8"?>
<svg width="48px" height="48px" viewBox="0 0 48 48" version="1.1" xmlns="http://www.w3.org/2000/svg" xmlns:xlink="http://www.w3.org/1999/xlink">
    <title>icon/face</title>
    <g id="icon/face" stroke="none" stroke-width="1" fill="none" fill-rule="evenodd">
        <path d="M18,23.5 C16.6192881,23.5 15.5,24.6192881 15.5,26 C15.5,27.3807119 16.6192881,28.5 18,28.5 C18.6630412,28.5 19.298926,28.2366079 19.767767,27.767767 C20.2366079,27.298926 20.5,26.6630412 20.5,26 C20.5,25.3369588 20.2366079,24.701074 19.767767,24.232233 C19.298926,23.7633921 18.6630412,23.5 18,23.5 L18,23.5 Z M30,23.5 C28.6192881,23.5 27.5,24.6192881 27.5,26 C27.5,27.3807119 28.6192881,28.5 30,28.5 C31.3807119,28.5 32.5,27.3807119 32.5,26 C32.5,24.6192881 31.3807119,23.5 30,23.5 L30,23.5 Z M24,4 C12.954305,4 4,12.954305 4,24 C4,29.3043298 6.10713681,34.3914081 9.85786438,38.1421356 C13.6085919,41.8928632 18.6956702,44 24,44 C29.3043298,44 34.3914081,41.8928632 38.1421356,38.1421356 C41.8928632,34.3914081 44,29.3043298 44,24 C44,18.6956702 41.8928632,13.6085919 38.1421356,9.85786438 C34.3914081,6.10713681 29.3043298,4 24,4 L24,4 Z M24,40 C15.18,40 8,32.82 8,24 C8,23.42 8,22.84 8.1,22.28 C12.82,20.18 16.56,16.32 18.52,11.54 C22.14,16.66 28.1,20 34.84,20 C36.4,20 37.9,19.82 39.34,19.48 C39.76,20.9 40,22.42 40,24 C40,32.82 32.82,40 24,40 Z" id="Mask" fill="#FFFFFF" fill-rule="nonzero"></path>
    </g>
</svg>