<svg width="48" height="48" viewBox="0 0 48 48" fill="none" xmlns="http://www.w3.org/2000/svg">
<path fill-rule="evenodd" clip-rule="evenodd" d="M33 8C33 5.79086 34.7909 4 37 4C39.2091 4 41 5.79086 41 8V10H42C43.1046 10 44 10.8954 44 12V18C44 19.1046 43.1046 20 42 20H32C30.8954 20 30 19.1046 30 18V12C30 10.8954 30.8954 10 32 10H33V8ZM37 6C35.8954 6 35 6.89543 35 8V10H39V8C39 6.89543 38.1046 6 37 6ZM39 15C39 16.1046 38.1046 17 37 17C35.8954 17 35 16.1046 35 15C35 13.8954 35.8954 13 37 13C38.1046 13 39 13.8954 39 15ZM26 10C26 9.27143 26.1948 8.58835 26.5351 8H8C5.79086 8 4 9.79086 4 12V40C4 42.2091 5.79086 44 8 44H36C38.2091 44 40 42.2091 40 40V24H30C27.7909 24 26 22.2091 26 20V10ZM15 29L8 38H36L27 26L20 35L15 29Z" fill="white"/>
</svg>
