<?xml version="1.0" encoding="utf-8"?>
<!-- Generator: Adobe Illustrator 26.5.0, SVG Export Plug-In . SVG Version: 6.00 Build 0)  -->
<svg version="1.1" id="Layer_1" xmlns="http://www.w3.org/2000/svg" xmlns:xlink="http://www.w3.org/1999/xlink" x="0px" y="0px"
	 viewBox="0 0 48 48" style="enable-background:new 0 0 48 48;" xml:space="preserve">
<style type="text/css">
	.st0{fill:#FFFFFF;}
</style>
<path class="st0" d="M26,24v12h4l-6,8l-6-8h4V24H26z M24,4l6,8h-4v4h10c1.1,0,2,0.9,2,2v12c0,1.1-0.9,2-2,2h-6v-4h4v-8H14v8h4v4h-6
	c-1.1,0-2-0.9-2-2V18c0-1.1,0.9-2,2-2h10v-4h-4L24,4z"/>
</svg>
