<?xml version="1.0" encoding="UTF-8"?>
<svg width="48px" height="48px" viewBox="0 0 48 48" version="1.1" xmlns="http://www.w3.org/2000/svg" xmlns:xlink="http://www.w3.org/1999/xlink">
    <title>icon/link</title>
    <g id="icon/link" stroke="none" stroke-width="1" fill="none" fill-rule="evenodd">
        <path d="M7.8,24 C7.8,20.58 10.58,17.8 14,17.8 L22,17.8 L22,14 L14,14 C8.4771525,14 4,18.4771525 4,24 C4,29.5228475 8.4771525,34 14,34 L22,34 L22,30.2 L14,30.2 C10.58,30.2 7.8,27.42 7.8,24 M16,26 L32,26 L32,22 L16,22 L16,26 M34,14 L26,14 L26,17.8 L34,17.8 C37.42,17.8 40.2,20.58 40.2,24 C40.2,27.42 37.42,30.2 34,30.2 L26,30.2 L26,34 L34,34 C39.5228475,34 44,29.5228475 44,24 C44,18.4771525 39.5228475,14 34,14 Z" id="Shape" fill="#FFFFFF" fill-rule="nonzero"></path>
    </g>
</svg>