<svg width="48" height="48" viewBox="0 0 48 48" fill="none" xmlns="http://www.w3.org/2000/svg">
<path fill-rule="evenodd" clip-rule="evenodd" d="M41 4L29 16L13 32L4 41L7 44L19 32H38C42.4183 32 46 28.4183 46 24C46 19.5817 42.4183 16 38 16H35L44 7L41 4ZM7.42384 31.5762L10 29C7.23858 29 5 26.7614 5 24C5 21.2386 7.23858 19 10 19C12.7614 19 15 21.2386 15 24L23 16H10C5.58172 16 2 19.5817 2 24C2 27.517 4.26947 30.5039 7.42384 31.5762ZM38 29C40.7614 29 43 26.7614 43 24C43 21.2386 40.7614 19 38 19C35.2386 19 33 21.2386 33 24C33 26.7614 35.2386 29 38 29ZM10 26C11.1046 26 12 25.1046 12 24C12 22.8954 11.1046 22 10 22C8.89543 22 8 22.8954 8 24C8 25.1046 8.89543 26 10 26ZM40 24C40 25.1046 39.1046 26 38 26C36.8954 26 36 25.1046 36 24C36 22.8954 36.8954 22 38 22C39.1046 22 40 22.8954 40 24Z" fill="white"/>
</svg>
