<?xml version="1.0" encoding="UTF-8"?>
<svg width="48px" height="48px" viewBox="0 0 48 48" version="1.1" xmlns="http://www.w3.org/2000/svg" xmlns:xlink="http://www.w3.org/1999/xlink">
    <title>icon/cranial/orientation-IS</title>
    <g id="icon/cranial/orientation-IS" stroke="none" stroke-width="1" fill="none" fill-rule="evenodd">
        <path d="M40,8 C42.209139,8 44,9.790861 44,12 L44,36 C44,38.209139 42.209139,40 40,40 L8,40 C5.790861,40 4,38.209139 4,36 L4,12 C4,9.790861 5.790861,8 8,8 L40,8 Z M40,12 L8,12 L8,35 L40,35 L40,12 Z M31.7109375,17.46875 C32.5286458,17.46875 33.2617188,17.6145833 33.9101562,17.90625 C34.5585938,18.1979167 35.0625,18.6132812 35.421875,19.1523438 C35.78125,19.6914062 35.9609375,20.3072917 35.9609375,21 L33.2265625,21 C33.2265625,20.5364583 33.0846354,20.1770833 32.8007812,19.921875 C32.5169271,19.6666667 32.1328125,19.5390625 31.6484375,19.5390625 C31.1588542,19.5390625 30.7721354,19.6471354 30.4882812,19.8632812 C30.2044271,20.0794271 30.0625,20.3541667 30.0625,20.6875 C30.0625,20.9791667 30.21875,21.2434896 30.53125,21.4804688 C30.84375,21.7174479 31.3932292,21.9622396 32.1796875,22.2148438 C32.9661458,22.4674479 33.6119792,22.7395833 34.1171875,23.03125 C35.3463542,23.7395833 35.9609375,24.7161458 35.9609375,25.9609375 C35.9609375,26.9557292 35.5859375,27.7369792 34.8359375,28.3046875 C34.0859375,28.8723958 33.0572917,29.15625 31.75,29.15625 C30.828125,29.15625 29.9934896,28.9908854 29.2460938,28.6601562 C28.4986979,28.3294271 27.9361979,27.8763021 27.5585938,27.3007812 C27.1809896,26.7252604 26.9921875,26.0625 26.9921875,25.3125 L29.7421875,25.3125 C29.7421875,25.921875 29.8997396,26.3710938 30.2148438,26.6601562 C30.5299479,26.9492188 31.0416667,27.09375 31.75,27.09375 C32.203125,27.09375 32.5611979,26.9960938 32.8242188,26.8007812 C33.0872396,26.6054688 33.21875,26.3307292 33.21875,25.9765625 C33.21875,25.5755208 33.0768229,25.2630208 32.7929688,25.0390625 C32.5091146,24.8151042 32.0104167,24.5833333 31.296875,24.34375 C30.5833333,24.1041667 30,23.8723958 29.546875,23.6484375 C28.0729167,22.9244792 27.3359375,21.9296875 27.3359375,20.6640625 C27.3359375,20.0338542 27.5195312,19.4778646 27.8867188,18.9960938 C28.2539062,18.5143229 28.7734375,18.1393229 29.4453125,17.8710938 C30.1171875,17.6028646 30.8723958,17.46875 31.7109375,17.46875 Z M16.8671875,17.625 L16.8671875,29 L14.1328125,29 L14.1328125,17.625 L16.8671875,17.625 Z" id="icon" fill="#FFFFFF" fill-rule="nonzero"></path>
    </g>
</svg>