<?xml version="1.0" encoding="UTF-8"?>
<svg width="48px" height="48px" viewBox="0 0 48 48" version="1.1" xmlns="http://www.w3.org/2000/svg" xmlns:xlink="http://www.w3.org/1999/xlink">
    <title>icon/cranial/orientation-SI</title>
    <g id="icon/cranial/orientation-SI" stroke="none" stroke-width="1" fill="none" fill-rule="evenodd">
        <path d="M40,8 C42.209139,8 44,9.790861 44,12 L44,36 C44,38.209139 42.209139,40 40,40 L8,40 C5.790861,40 4,38.209139 4,36 L4,12 C4,9.790861 5.790861,8 8,8 L40,8 Z M40,12 L8,12 L8,35 L40,35 L40,12 Z M16.7109375,17.46875 C17.5286458,17.46875 18.2617188,17.6145833 18.9101562,17.90625 C19.5585938,18.1979167 20.0625,18.6132812 20.421875,19.1523438 C20.78125,19.6914062 20.9609375,20.3072917 20.9609375,21 L18.2265625,21 C18.2265625,20.5364583 18.0846354,20.1770833 17.8007812,19.921875 C17.5169271,19.6666667 17.1328125,19.5390625 16.6484375,19.5390625 C16.1588542,19.5390625 15.7721354,19.6471354 15.4882812,19.8632812 C15.2044271,20.0794271 15.0625,20.3541667 15.0625,20.6875 C15.0625,20.9791667 15.21875,21.2434896 15.53125,21.4804688 C15.84375,21.7174479 16.3932292,21.9622396 17.1796875,22.2148438 C17.9661458,22.4674479 18.6119792,22.7395833 19.1171875,23.03125 C20.3463542,23.7395833 20.9609375,24.7161458 20.9609375,25.9609375 C20.9609375,26.9557292 20.5859375,27.7369792 19.8359375,28.3046875 C19.0859375,28.8723958 18.0572917,29.15625 16.75,29.15625 C15.828125,29.15625 14.9934896,28.9908854 14.2460938,28.6601562 C13.4986979,28.3294271 12.9361979,27.8763021 12.5585938,27.3007812 C12.1809896,26.7252604 11.9921875,26.0625 11.9921875,25.3125 L14.7421875,25.3125 C14.7421875,25.921875 14.8997396,26.3710938 15.2148438,26.6601562 C15.5299479,26.9492188 16.0416667,27.09375 16.75,27.09375 C17.203125,27.09375 17.5611979,26.9960938 17.8242188,26.8007812 C18.0872396,26.6054688 18.21875,26.3307292 18.21875,25.9765625 C18.21875,25.5755208 18.0768229,25.2630208 17.7929688,25.0390625 C17.5091146,24.8151042 17.0104167,24.5833333 16.296875,24.34375 C15.5833333,24.1041667 15,23.8723958 14.546875,23.6484375 C13.0729167,22.9244792 12.3359375,21.9296875 12.3359375,20.6640625 C12.3359375,20.0338542 12.5195312,19.4778646 12.8867188,18.9960938 C13.2539062,18.5143229 13.7734375,18.1393229 14.4453125,17.8710938 C15.1171875,17.6028646 15.8723958,17.46875 16.7109375,17.46875 Z M33.8671875,17.625 L33.8671875,29 L31.1328125,29 L31.1328125,17.625 L33.8671875,17.625 Z" id="icon" fill="#FFFFFF" fill-rule="nonzero"></path>
    </g>
</svg>