<?xml version="1.0" encoding="UTF-8"?>
<svg width="48px" height="48px" viewBox="0 0 48 48" version="1.1" xmlns="http://www.w3.org/2000/svg" xmlns:xlink="http://www.w3.org/1999/xlink">
    <title>icon/cranial/orientation-LR</title>
    <g id="icon/cranial/orientation-LR" stroke="none" stroke-width="1" fill="none" fill-rule="evenodd">
        <path d="M40,8 C42.209139,8 44,9.790861 44,12 L44,36 C44,38.209139 42.209139,40 40,40 L8,40 C5.790861,40 4,38.209139 4,36 L4,12 C4,9.790861 5.790861,8 8,8 L40,8 Z M40,12 L8,12 L8,35 L40,35 L40,12 Z M14.6015625,17.625 L14.6015625,26.890625 L19.375,26.890625 L19.375,29 L11.859375,29 L11.859375,17.625 L14.6015625,17.625 Z M31.8984375,17.625 C33.2473958,17.625 34.3020833,17.9244792 35.0625,18.5234375 C35.8229167,19.1223958 36.203125,19.96875 36.203125,21.0625 C36.203125,21.8541667 36.0429688,22.5104167 35.7226562,23.03125 C35.4023438,23.5520833 34.9010417,23.9739583 34.21875,24.296875 L36.59375,28.8828125 L36.59375,29 L33.65625,29 L31.6484375,24.984375 L30.1640625,24.984375 L30.1640625,29 L27.421875,29 L27.421875,17.625 L31.8984375,17.625 Z M31.8984375,19.7421875 L30.1640625,19.7421875 L30.1640625,22.8671875 L31.8984375,22.8671875 C32.4192708,22.8671875 32.8111979,22.7304688 33.0742188,22.4570312 C33.3372396,22.1835938 33.46875,21.8020833 33.46875,21.3125 C33.46875,20.8229167 33.3359375,20.4388021 33.0703125,20.1601562 C32.8046875,19.8815104 32.4140625,19.7421875 31.8984375,19.7421875 Z" id="Combined-Shape" fill="#FFFFFF" fill-rule="nonzero"></path>
    </g>
</svg>