<svg width="48" height="48" viewBox="0 0 48 48" fill="none" xmlns="http://www.w3.org/2000/svg">
<path fill-rule="evenodd" clip-rule="evenodd" d="M7 8C7 5.79086 8.79086 4 11 4C13.2091 4 15 5.79086 15 8V10H16C17.1046 10 18 10.8954 18 12V18C18 19.1046 17.1046 20 16 20H6C4.89543 20 4 19.1046 4 18V12C4 10.8954 4.89543 10 6 10H7V8ZM11 6C9.89543 6 9 6.89543 9 8V10H13V8C13 6.89543 12.1046 6 11 6ZM13 15C13 16.1046 12.1046 17 11 17C9.89543 17 9 16.1046 9 15C9 13.8954 9.89543 13 11 13C12.1046 13 13 13.8954 13 15ZM40 12C42.2091 12 44 10.2091 44 8C44 5.79086 42.2091 4 40 4C37.7909 4 36 5.79086 36 8C36 8.35832 36.0471 8.70563 36.1355 9.03609L31.2283 13.9433L30.6405 11.0047C31.474 10.2716 32 9.19723 32 8C32 5.79086 30.2091 4 28 4C25.7909 4 24 5.79086 24 8C24 9.76092 25.1379 11.2561 26.7184 11.7903L27.8289 17.3427L6.58578 38.5858V41.4142H9.41421L30.6573 20.1711L36.2097 21.2815C36.7439 22.8621 38.2391 24 40 24C42.2091 24 44 22.2091 44 20C44 17.7909 42.2091 16 40 16C38.8028 16 37.7284 16.526 36.9953 17.3595L34.0567 16.7717L38.9639 11.8645C39.2944 11.9529 39.6417 12 40 12Z" fill="white"/>
</svg>
