<svg width="48" height="48" viewBox="0 0 48 48" fill="none" xmlns="http://www.w3.org/2000/svg">
<path fill-rule="evenodd" clip-rule="evenodd" d="M14.5 4V12.1174L22.7285 16.6888L21.2715 19.3112L13 14.7159L4.72847 19.3112L3.27155 16.6888L11.5 12.116V4H14.5ZM40 12C42.2091 12 44 10.2091 44 8C44 5.79086 42.2091 4 40 4C37.7909 4 36 5.79086 36 8C36 8.35832 36.0471 8.70563 36.1355 9.03609L31.2283 13.9433L30.6405 11.0047C31.474 10.2716 32 9.19723 32 8C32 5.79086 30.2091 4 28 4C25.7909 4 24 5.79086 24 8C24 9.76092 25.1379 11.2561 26.7184 11.7903L27.8289 17.3427L6.58578 38.5858V41.4142H9.41421L30.6573 20.1711L36.2097 21.2815C36.7439 22.8621 38.2391 24 40 24C42.2091 24 44 22.2091 44 20C44 17.7909 42.2091 16 40 16C38.8028 16 37.7284 16.526 36.9953 17.3595L34.0567 16.7717L38.9639 11.8645C39.2944 11.9529 39.6417 12 40 12Z" fill="white"/>
</svg>
