<svg xmlns="http://www.w3.org/2000/svg" width="48" height="48" viewBox="0 0 48 48">
    <g fill="none" fill-rule="evenodd">
        <g fill="#FFF" fill-rule="nonzero">
            <g>
                <g>
                    <g>
                        <g>
                            <g>
                                <path d="M38 14c2.21 0 4 1.79 4 4v8h-4v-8H18v20h8v4h-8c-2.21 0-4-1.79-4-4V18c0-2.21 1.79-4 4-4zm-4-8v4H10v24H6V10c0-2.21 1.79-4 4-4h24zm-3.586 21.586l8 8-2.828 2.828-8-8 2.828-2.828zM42 30v12H30l12-12zm-17.586-8.414l3 3-2.828 2.828-3-3 2.828-2.828z" transform="translate(-680 -1008) translate(0 64) translate(8 8) translate(558 823) translate(114 113)"/>
                            </g>
                        </g>
                    </g>
                </g>
            </g>
        </g>
    </g>
</svg>
