<?xml version="1.0" encoding="UTF-8"?>
<svg width="48px" height="48px" viewBox="0 0 48 48" version="1.1" xmlns="http://www.w3.org/2000/svg" xmlns:xlink="http://www.w3.org/1999/xlink">
    <title>icon/auxiliary-input</title>
    <g id="icon/auxiliary-input" stroke="none" stroke-width="1" fill="none" fill-rule="evenodd">
        <path d="M32,6 C36.418278,6 40,9.581722 40,14 L40,14 L40,36 C40,37.1045695 39.1045695,38 38,38 C36.8954305,38 36,37.1045695 36,36 L36,36 L36,14 C36,11.790861 34.209139,10 32,10 C29.790861,10 28,11.790861 28,14 L28,14 L28,34 C28,38.418278 24.418278,42 20,42 C15.581722,42 12,38.418278 12,34 L12,34 L11.9998796,33.4648015 C10.8043432,32.7731656 10,31.480515 10,30 L10,18 L18,18 L18,30 C18,31.4801068 17.1961002,32.7724528 16.0011092,33.4642293 L16,34 C16,36.209139 17.790861,38 20,38 C22.209139,38 24,36.209139 24,34 L24,34 L24,14 C24,9.581722 27.581722,6 32,6 Z M16,14 L16,16 L12,16 L12,14 L16,14 Z M14,6 C15.1045695,6 16,6.8954305 16,8 L16,12 L12,12 L12,8 C12,6.8954305 12.8954305,6 14,6 Z" id="Combined-Shape" fill="#FFFFFF" fill-rule="nonzero"></path>
    </g>
</svg>