<svg width="96" height="96" viewBox="0 0 96 96" fill="none" xmlns="http://www.w3.org/2000/svg">
<g id="icon/cranial/brain-coronal">
<path id="icon" fill-rule="evenodd" clip-rule="evenodd" d="M44 12C26.3269 12 12 26.3269 12 44V48C12 52.4183 15.5817 56 20 56H36C40.4183 56 44 52.4183 44 48V42.0094C39.2503 41.2108 34.6946 38.9789 31.0294 35.3137C29.4673 33.7516 29.4673 31.219 31.0294 29.6569C32.5915 28.0948 35.1242 28.0948 36.6863 29.6569C38.7844 31.755 41.3203 33.1486 44 33.8377V12ZM52 42.0094C56.7497 41.2108 61.3054 38.9789 64.9706 35.3137C66.5327 33.7516 66.5327 31.219 64.9706 29.6569C63.4085 28.0948 60.8758 28.0948 59.3137 29.6569C57.2156 31.755 54.6797 33.1486 52 33.8377V12C69.6731 12 84 26.3269 84 44V48C84 52.4183 80.4183 56 76 56H60C55.5817 56 52 52.4183 52 48V42.0094ZM28 68C28 65.7909 29.7909 64 32 64H64C66.2091 64 68 65.7909 68 68C68 74.6274 62.6274 80 56 80H52V88H44V80H40C33.3726 80 28 74.6274 28 68Z" fill="white"/>
</g>
</svg>
