<svg width="96" height="96" viewBox="0 0 96 96" fill="none" xmlns="http://www.w3.org/2000/svg">
<g id="icon/cranial/brain-axial">
<path id="icon" fill-rule="evenodd" clip-rule="evenodd" d="M40 12C37.7909 12 36 13.7909 36 16C27.1634 16 20 23.1634 20 32C20 33.3103 20.1575 34.5839 20.4546 35.8028C12.985 40.3707 8 48.6032 8 58C8 72.3594 19.6406 84 34 84H40C42.2091 84 44 82.2091 44 80V64.5833C41.0682 67.905 36.7788 70 32 70C29.7909 70 28 68.2091 28 66C28 63.7909 29.7909 62 32 62L32.3993 61.9902C36.6321 61.7822 40 58.2844 40 54C40 49.5817 36.4183 46 32 46C29.7909 46 28 44.2091 28 42C28 39.7909 29.7909 38 32 38C36.7788 38 41.0682 40.095 44 43.4167V16C44 13.7909 42.2091 12 40 12ZM56 12C53.7909 12 52 13.7909 52 16V43.4167C54.9318 40.095 59.2212 38 64 38C66.2091 38 68 39.7909 68 42C68 44.2091 66.2091 46 64 46C59.5817 46 56 49.5817 56 54C56 58.2844 59.3679 61.7822 63.6007 61.9902L64 62C66.2091 62 68 63.7909 68 66C68 68.2091 66.2091 70 64 70C59.2212 70 54.9318 67.905 52 64.5833V80C52 82.2091 53.7909 84 56 84H62C76.3594 84 88 72.3594 88 58C88 48.6032 83.015 40.3707 75.5453 35.8028C75.8425 34.5839 76 33.3103 76 32C76 23.1634 68.8366 16 60 16C60 13.7909 58.2091 12 56 12Z" fill="white"/>
</g>
</svg>
