<?xml version="1.0" encoding="UTF-8"?>
<svg width="48px" height="48px" viewBox="0 0 48 48" version="1.1" xmlns="http://www.w3.org/2000/svg" xmlns:xlink="http://www.w3.org/1999/xlink">
    <title>icon/cranial/color-blend-double</title>
    <g id="icon/cranial/color-blend-double" stroke="none" stroke-width="1" fill="none" fill-rule="evenodd">
        <path d="M30,6 C38,15.3616997 42,22.695033 42,28 C42,34.627417 36.627417,40 30,40 C27.8142527,40 25.7649944,39.4156212 23.9999408,38.3945794 C22.2357797,39.4154005 20.1861601,40 18,40 C11.372583,40 6,34.627417 6,28 C6,22.6675756 10,15.3342423 18,6 C20.340284,8.73862948 22.3382599,11.3036774 23.9939277,13.6951438 C25.6523017,11.3020545 27.6541872,8.73704815 30,6 Z M23.9945742,13.6960776 L23.7074911,14.1123553 C19.902497,19.6932511 18,24.322466 18,28 C18,32.4416697 20.4131652,36.3197144 24.0010592,38.3940009 C27.5872833,36.3189936 30,32.4412569 30,28 C30,24.2471262 27.9981914,19.479152 23.9945742,13.6960776 Z" id="Combined-Shape" fill="#FFFFFF" fill-rule="nonzero"></path>
    </g>
</svg>