<?xml version="1.0" encoding="UTF-8"?>
<svg width="48px" height="48px" viewBox="0 0 48 48" version="1.1" xmlns="http://www.w3.org/2000/svg" xmlns:xlink="http://www.w3.org/1999/xlink">
    <title>icon/cranial/color-blend</title>
    <g id="icon/cranial/color-blend" stroke="none" stroke-width="1" fill="none" fill-rule="evenodd">
        <path d="M30,6 C38,15.3616997 42,22.695033 42,28 C42,34.627417 36.627417,40 30,40 C27.8142527,40 25.7649944,39.4156212 23.9999408,38.3945794 C22.2357797,39.4154005 20.1861601,40 18,40 C11.372583,40 6,34.627417 6,28 C6,22.6675756 10,15.3342423 18,6 C20.340284,8.73862948 22.3382599,11.3036774 23.9939277,13.6951438 C25.6523017,11.3020545 27.6541872,8.73704815 30,6 Z M17.996,12.307 L17.8040599,12.5525864 C12.5607489,19.2957219 10,24.5371881 10,28 C10,32.418278 13.581722,36 18,36 C18.9354012,36 19.8333064,35.8394606 20.6676659,35.5444315 C18.9992254,33.4829111 18,30.8581463 18,28 C18,25.0624749 19.2138744,21.5177368 21.6416232,17.3657856 C20.6479266,15.8429766 19.4819207,14.2175533 18.1419553,12.4936983 L17.996,12.307 Z M29.996,12.307 L29.8040599,12.5525864 C28.4810712,14.2540097 27.328868,15.8598292 26.3454934,17.3655954 C28.7820136,21.5276794 30,25.072655 30,28 C30,30.8581463 29.0007746,33.4829111 27.3326024,35.5440157 C28.1666936,35.8394606 29.0645988,36 30,36 C34.418278,36 38,32.418278 38,28 C38,24.5488371 35.4210047,19.2851538 30.1419553,12.4936983 L29.996,12.307 Z M23.995132,21.3895665 L23.8539804,21.6709282 C22.613235,24.1849219 22,26.3054325 22,28 C22,30.0286782 22.7551133,31.8809902 23.9996048,33.291201 C25.2448867,31.8809902 26,30.0286782 26,28 C26,26.2501271 25.3369708,24.0342766 23.995132,21.3895665 Z" id="icon" fill="#FFFFFF" fill-rule="nonzero"></path>
    </g>
</svg>