<?xml version="1.0" encoding="UTF-8"?>
<svg width="48px" height="48px" viewBox="0 0 48 48" version="1.1" xmlns="http://www.w3.org/2000/svg" xmlns:xlink="http://www.w3.org/1999/xlink">
    <title>icon/cranial/color-blend-single</title>
    <g id="icon/cranial/color-blend-single" stroke="none" stroke-width="1" fill="none" fill-rule="evenodd">
        <path d="M30,6 C38,15.3616997 42,22.695033 42,28 C42,34.627417 36.627417,40 30,40 C27.8588345,40 25.848647,39.4392168 24.1082975,38.4565105 L24.0010592,38.3940009 L23.9309127,38.4342727 C23.7460882,38.5395547 23.5581943,38.6400675 23.3673985,38.7356438 C23.3226861,38.7580422 23.2777496,38.7802008 23.2326554,38.8020854 C23.1709626,38.8320275 23.1086857,38.8615908 23.0461165,38.8906308 C23.0089253,38.9078898 22.9722126,38.9247011 22.935401,38.9413321 C22.8505883,38.9796559 22.7645381,39.0173245 22.6779681,39.0540059 C22.6554104,39.0635628 22.6333315,39.0728385 22.611219,39.08205 C22.5082669,39.1249419 22.4041752,39.1665998 22.2993759,39.2068301 C22.2617564,39.221272 22.2238934,39.2355867 22.1859397,39.2497147 C22.1171246,39.2753294 22.0482067,39.3002619 21.9789987,39.324578 C21.9363533,39.3395625 21.893321,39.3544066 21.8501787,39.3690121 C21.7670782,39.3971443 21.6836533,39.4243646 21.5998321,39.45069 C21.5726513,39.4592263 21.545514,39.4676425 21.5183357,39.4759647 C21.4161593,39.5072523 21.3133691,39.5372222 21.2100185,39.565844 C21.1614985,39.5792794 21.1132383,39.5923166 21.0648587,39.6050594 C20.994021,39.6237191 20.9226663,39.6418109 20.8510599,39.6592603 C20.8076063,39.6698486 20.7642347,39.6801599 20.7207725,39.690235 C20.6495286,39.7067517 20.5778146,39.7226822 20.5058622,39.7379679 C20.4486913,39.7501122 20.3915777,39.7618085 20.3343178,39.7730975 C20.2392823,39.7918358 20.1436417,39.8094869 20.0476109,39.8259967 C20.0007665,39.8340487 19.9542169,39.8417672 19.9075776,39.849217 C19.8348879,39.8608307 19.7615341,39.8718545 19.6879662,39.8822112 C19.650269,39.8875179 19.6125838,39.8926404 19.5748434,39.8975876 C19.4855648,39.9092891 19.3961961,39.9199854 19.3065311,39.9296941 C19.2534774,39.9354397 19.2000739,39.9408628 19.146568,39.9459346 C19.0398355,39.9560508 18.9328026,39.9647617 18.8253817,39.9720589 C18.8102171,39.9730888 18.7952454,39.9740777 18.7802661,39.9750391 C18.6864356,39.9810622 18.5921727,39.9860127 18.4976278,39.9898692 C18.4512301,39.9917614 18.4048558,39.9933876 18.3584152,39.9947498 C18.3409713,39.9952623 18.322978,39.995751 18.3049748,39.9962001 L18,40 C11.372583,40 6,34.627417 6,28 C6,22.6675756 10,15.3342423 18,6 C18.2278847,6.26667347 18.4525236,6.53170107 18.6739168,6.79508279 C19.971721,8.33901019 21.1582648,9.82673981 22.233224,11.2578858 C22.4141574,11.4987742 22.591639,11.7376641 22.7659696,11.9749563 C23.0006011,12.2943207 23.2299885,12.6114418 23.4536451,12.9256568 C23.5053568,12.998307 23.5566212,13.0706025 23.6075811,13.1427436 C23.7384379,13.3279914 23.8671857,13.5120762 23.9939277,13.6951438 C25.6523017,11.3020545 27.6541872,8.73704815 30,6 Z M29.996,12.307 L29.8040599,12.5525864 C28.4810712,14.2540097 27.328868,15.8598292 26.3454934,17.3655954 C28.7820136,21.5276794 30,25.072655 30,28 C30,30.8581463 29.0007746,33.4829111 27.3326024,35.5440157 C28.1666936,35.8394606 29.0645988,36 30,36 C34.418278,36 38,32.418278 38,28 C38,24.5488371 35.4210047,19.2851538 30.1419553,12.4936983 L29.996,12.307 Z M23.995132,21.3895665 L23.8539804,21.6709282 C22.613235,24.1849219 22,26.3054325 22,28 C22,30.0286782 22.7551133,31.8809902 23.9996048,33.291201 C25.2448867,31.8809902 26,30.0286782 26,28 C26,26.2501271 25.3369708,24.0342766 23.995132,21.3895665 Z" id="icon" fill="#FFFFFF" fill-rule="nonzero"></path>
    </g>
</svg>