<?xml version="1.0" encoding="UTF-8"?>
<svg width="48px" height="48px" viewBox="0 0 48 48" version="1.1" xmlns="http://www.w3.org/2000/svg" xmlns:xlink="http://www.w3.org/1999/xlink">
    <title>icon/general/plan/crosshair-tool</title>
    <g id="icon/general/plan/crosshair-tool" stroke="none" stroke-width="1" fill="none" fill-rule="evenodd">
        <path d="M21,8 C21,9.14973028 21.277185,10.2347205 21.7683747,11.1917905 C16.3003743,12.1364838 12.0022324,16.4990557 11.152871,22.0001641 L16,22 L16,23.5138737 L13.514,25.9998737 L11.1530254,26.0008357 C11.4296548,27.7915712 12.0717379,29.461641 13.000683,30.9324533 L13,35 L17.0695324,35.0005709 C18.5401359,35.9290128 20.2098563,36.5707086 22.0001641,36.847129 L22,34.4838737 L24.484,31.9998737 L26,32 L26.0008357,36.8469746 C31.5014729,35.9972468 35.8635735,31.6992944 36.8093059,26.2309486 C37.7652795,26.722815 38.8502697,27 40,27 C40.2509178,27 40.4987522,26.986798 40.7428463,26.9610506 C39.4553818,34.2936254 33.4676441,40.0081928 26.0005404,40.8835304 L26,44 L22,44 L22.0004624,40.8836479 C14.2100628,39.9708799 8.02968962,33.7908018 7.11646961,26.0005404 L4,26 L4,22 L7.11635209,22.0004624 C7.99129557,14.5328919 13.7060463,8.5446758 21.0395446,7.25687372 C21.0131699,7.5018519 21,7.74938796 21,8 Z M32,24.5188737 L35.2888395,25.1774164 C35.6284778,25.4866482 35.9986609,25.7629137 36.3943311,26.0011551 L32,26 L32,24.5188737 Z M22.823013,12.7116321 L23.481,15.9998737 L22,16 L22.0000554,11.6076785 C22.2381323,12.0027757 22.5141312,12.3724399 22.823013,12.7116321 Z" id="crosshair" fill="#FFFFFF" fill-rule="nonzero"></path>
        <path d="M40,4 C42.209139,4 44,5.790861 44,8 C44,10.209139 42.209139,12 40,12 C39.6421231,12 39.2952233,11.9530016 38.9651359,11.8648402 L34.0557864,16.772 L36.9954507,17.3593388 C37.6875122,16.5725295 38.6837509,16.0597794 39.8003597,16.0048953 L40,16 C42.209139,16 44,17.790861 44,20 C44,22.209139 42.209139,24 40,24 C38.2391243,24 36.7440004,22.8621809 36.2097418,21.2816561 L30.6567864,20.171 L19.4142136,31.4142136 L16.5857864,31.4142136 L16.5857864,28.5857864 L27.8287864,17.342 L26.7183439,11.7902582 C25.1979062,11.2763106 24.0871533,9.8731679 24.0048953,8.19964034 L24,8 C24,5.790861 25.790861,4 28,4 C30.209139,4 32,5.790861 32,8 C32,9.19722333 31.4740237,10.2715983 30.6405428,11.0046534 L31.2277864,13.943 L36.1354274,9.03586533 C36.0636003,8.76721724 36.0190407,8.48742664 36.0048953,8.19964034 L36,8 C36,5.790861 37.790861,4 40,4 Z" id="tool" fill="#FFFFFF" fill-rule="nonzero"></path>
    </g>
</svg>