<svg width="96" height="96" viewBox="0 0 96 96" fill="none" xmlns="http://www.w3.org/2000/svg">
<g id="icon/plan/fine-movement-controls">
<path id="icon" fill-rule="evenodd" clip-rule="evenodd" d="M62.16 22.16L55.08 29.2L48 22.16L40.92 29.2L33.84 22.16L48 8L62.16 22.16ZM73.84 62.16L66.8 55.08L73.84 48L66.8 40.92L73.84 33.84L88 48L73.84 62.16ZM40.92 66.8L33.84 73.84L48 88L62.16 73.84L55.08 66.8L48 73.84L40.92 66.8ZM22.16 33.84L29.2 40.92L22.16 48L29.2 55.08L22.16 62.16L8 48L22.16 33.84ZM48 60C54.6274 60 60 54.6274 60 48C60 41.3726 54.6274 36 48 36C41.3726 36 36 41.3726 36 48C36 54.6274 41.3726 60 48 60Z" fill="white"/>
</g>
</svg>
