<svg width="96" height="96" viewBox="0 0 96 96" fill="none" xmlns="http://www.w3.org/2000/svg">
<g id="icon/view/flip-horizontal">
<path id="icon" fill-rule="evenodd" clip-rule="evenodd" d="M20 12L36 12V20H20L20 76H36V84H20C15.588 84 12 80.412 12 76L12 20C12 15.588 15.588 12 20 12ZM52 8L52 88H43.998V8H52ZM68 76V84H60V76H68ZM68 20V12H60V20H68ZM84 60V68.002H76V60H84ZM84 52V44H76V52H84ZM84 28V36H76V28H84ZM76 20V12C80.418 12 84 15.582 84 20H76ZM84 76H76V84C80.418 84 84 80.418 84 76Z" fill="white"/>
</g>
</svg>
