<svg width="96" height="96" viewBox="0 0 96 96" fill="none" xmlns="http://www.w3.org/2000/svg">
<g id="icon/tracking/landmark">
<path id="icon" fill-rule="evenodd" clip-rule="evenodd" d="M83.76 44C81.92 27.32 68.68 14.08 52 12.24V4H44V12.24C27.32 14.08 14.08 27.32 12.24 44H4V52H12.24C14.08 68.68 27.32 81.92 44 83.76V92H52V83.76C68.68 81.92 81.92 68.68 83.76 52H92V44H83.76ZM48 32C39.16 32 32 39.16 32 48C32 56.84 39.16 64 48 64C56.84 64 64 56.84 64 48C64 39.16 56.84 32 48 32ZM20 48C20 63.48 32.52 76 48 76C63.48 76 76 63.48 76 48C76 32.52 63.48 20 48 20C32.52 20 20 32.52 20 48Z" fill="white"/>
</g>
</svg>
