<svg width="96" height="96" viewBox="0 0 96 96" fill="none" xmlns="http://www.w3.org/2000/svg">
<g id="icon/tracking/landmark/placed">
<path id="icon" fill-rule="evenodd" clip-rule="evenodd" d="M52 12.24C68.68 14.08 81.92 27.32 83.76 44H92V52H85.2712C82.5252 50.1742 79.3816 48.8989 75.9981 48.3315C75.9994 48.2212 76 48.1107 76 48C76 32.52 63.48 20 48 20C32.52 20 20 32.52 20 48C20 63.48 32.52 76 48 76C48.1107 76 48.2212 75.9994 48.3315 75.9981C48.8989 79.3816 50.1742 82.5252 52 85.2712V92H44V83.76C27.32 81.92 14.08 68.68 12.24 52H4V44H12.24C14.08 27.32 27.32 14.08 44 12.24V4H52V12.24ZM32 48C32 39.16 39.16 32 48 32C56.84 32 64 39.16 64 48C64 56.84 56.84 64 48 64C39.16 64 32 56.84 32 48Z" fill="white"/>
<path id="highlight" d="M85.1716 59.1716L90.8285 64.8285L68.0001 87.6569L53.1716 72.8285L58.8285 67.1716L68.0001 76.3421L85.1716 59.1716Z" fill="#00CC66"/>
</g>
</svg>
