<?xml version="1.0" encoding="UTF-8"?>
<svg width="48px" height="48px" viewBox="0 0 48 48" version="1.1" xmlns="http://www.w3.org/2000/svg" xmlns:xlink="http://www.w3.org/1999/xlink">
    <title>icon/link-off</title>
    <g id="icon/link-off" stroke="none" stroke-width="1" fill="none" fill-rule="evenodd">
        <path d="M44,41 L41,44 L31,34 L26,34 L26,30.2 L27.2,30.2 L23,26 L16,26 L16,22 L19,22 L14.8,17.8 L14,17.8 C10.656,17.8 7.9238716,20.4578173 7.80409503,23.7729716 L7.8,24 C7.8,27.42 10.58,30.2 14,30.2 L14,30.2 L22,30.2 L22,34 L14,34 C8.4771525,34 4,29.5228475 4,24 C4,19.3929889 7.11540353,15.5136192 11.3544036,14.3536981 L4,7 L7,4 L44,41 Z M34,14 C39.5228475,14 44,18.4771525 44,24 C44,27.0157716 42.6650264,29.7197435 40.553787,31.5532076 L37.8539737,28.8542484 C39.2828109,27.7176778 40.2,25.9644146 40.2,24 C40.2,20.58 37.42,17.8 34,17.8 L34,17.8 L26.8,17.8 L26,17 L26,14 Z M31,22 L32,22 L32,23 L31,22 Z" id="Shape" fill="#FFFFFF" fill-rule="nonzero"></path>
    </g>
</svg>