<?xml version="1.0" encoding="UTF-8"?>
<svg width="48px" height="48px" viewBox="0 0 48 48" version="1.1" xmlns="http://www.w3.org/2000/svg" xmlns:xlink="http://www.w3.org/1999/xlink">
    <title>icon/cranial/mask-intensity-off</title>
    <g id="icon/cranial/mask-intensity-off" stroke="none" stroke-width="1" fill="none" fill-rule="evenodd">
        <path d="M44,41 L41,44 L36.5628564,39.5628322 C33.1292703,42.3380163 28.7587237,44 24,44 C21.9101244,44 19.8951157,43.6794567 18.0014566,43.0848528 L17.8443497,43.0348036 C17.7956469,43.0190653 17.7470259,43.0031452 17.6984873,42.9870442 L18.0005483,43.0842232 C17.8617172,43.0406284 17.7235385,42.9955605 17.5860303,42.9490378 C17.5041808,42.921674 17.4221844,42.8933299 17.3404317,42.8644694 C17.3073635,42.8524764 17.2743284,42.8407168 17.2413335,42.828873 C17.1585672,42.7994767 17.0761454,42.7692678 16.9939798,42.7385339 C16.9662782,42.7278652 16.9386019,42.7174433 16.9109548,42.7069619 C16.8491726,42.6838423 16.7875137,42.6601114 16.726003,42.6360848 C16.6706362,42.6141615 16.6153713,42.5922899 16.5602276,42.5701797 C16.2433785,42.443419 15.9305272,42.3084877 15.6219249,42.1659239 L15.6035317,42.1571554 C15.5496195,42.132185 15.4958372,42.1069814 15.4421862,42.0815461 C15.3956897,42.0597558 15.3493219,42.0375513 15.3030534,42.0151738 C15.2740845,42.0009148 15.2446881,41.9866099 15.2153322,41.9722351 C15.1305082,41.9309407 15.0465442,41.8890813 14.9629185,41.8466515 C14.9426898,41.8361497 14.9223006,41.8257614 14.9019317,41.8153392 C14.8190832,41.7731825 14.7365446,41.7302148 14.6543459,41.6866908 C14.6369119,41.6772304 14.6199292,41.6682067 14.6029612,41.6591592 C14.4155515,41.5594582 14.2295339,41.4564117 14.0453617,41.3505171 C14.0184242,41.3348189 13.991812,41.3194359 13.9652386,41.3039935 C13.8930135,41.262228 13.8208953,41.2197081 13.749069,41.1767505 C13.7160772,41.1568198 13.6828244,41.1368022 13.6496348,41.1166908 C13.4914128,41.0210031 13.335053,40.9232602 13.1801607,40.8234367 C13.1015459,40.7725901 13.0232992,40.721385 12.9454359,40.6696488 C12.8015641,40.5742235 12.6592317,40.4769702 12.5182362,40.3779424 C12.473001,40.3460077 12.4279973,40.3141222 12.3831316,40.2820559 C12.3302463,40.2444185 12.2773114,40.2061927 12.2245719,40.1677151 C12.1864295,40.1397316 12.1484285,40.1118019 12.1105302,40.0837415 C12.040009,40.0316776 11.9699439,39.9790839 11.9002375,39.9260431 C11.8688924,39.9020458 11.8374322,39.8779612 11.8060457,39.8537855 C11.7612318,39.8194128 11.716168,39.7843954 11.6712585,39.7491901 C11.631818,39.7181301 11.5928747,39.6873676 11.554049,39.6564637 C11.5216995,39.6308539 11.4889245,39.6045988 11.4562343,39.5782429 C11.3613202,39.5015854 11.2672853,39.4243522 11.1739731,39.3462839 C10.9526594,39.1612492 10.7353451,38.9713276 10.5222523,38.7768585 C10.4958635,38.7526662 10.4691016,38.7281122 10.4424069,38.7034864 C10.0287152,38.3219352 9.63154607,37.9234485 9.25162604,37.5088945 C9.10319541,37.3468437 8.95781206,37.182905 8.81511384,37.016595 C8.79120498,36.9888011 8.76760995,36.961149 8.7440891,36.933432 C8.63773362,36.8080295 8.53310344,36.6816285 8.4300122,36.5539334 C8.39652753,36.5125202 8.36335088,36.4710892 8.33033611,36.4295239 C8.29580264,36.3859849 8.26141879,36.3423261 8.22721344,36.2985212 C8.18557987,36.2452639 8.14411516,36.1916045 8.10291812,36.1377296 C8.0789232,36.1062925 8.05512145,36.0749757 8.03141011,36.0435869 C7.9917801,35.9911811 7.95237426,35.9384789 7.91322317,35.8855768 C7.87901478,35.8393016 7.84477703,35.7926201 7.81073757,35.7457852 C7.77998254,35.7035181 7.74978443,35.661626 7.7197449,35.6196127 C7.69287943,35.5819909 7.66581101,35.5438547 7.63887323,35.5056198 L7.59746242,35.4466656 C7.49548259,35.3008051 7.39539875,35.1535212 7.29724664,35.0048498 C7.22559529,34.896278 7.1549579,34.786985 7.0853643,34.6769662 C7.01386232,34.5639591 6.94384018,34.4507714 6.8749229,34.3368406 C6.85041439,34.2962894 6.82603473,34.2556613 6.8017956,34.2149398 C6.70959585,34.0600763 6.61947951,33.9039171 6.53143076,33.7464449 C6.50645631,33.7017513 6.48147861,33.6566732 6.4566704,33.6114887 C6.42110182,33.5467335 6.38590959,33.4817836 6.35106772,33.4166181 C6.32794184,33.3733385 6.30498274,33.3300147 6.28217856,33.2865967 C6.07535928,32.8928426 5.88131382,32.491392 5.70055458,32.0827514 L5.67655197,32.0282515 C5.64630347,31.9593123 5.61643262,31.8901697 5.58694205,31.8208265 C5.57441572,31.791389 5.56188464,31.7617246 5.54942318,31.7320237 C5.52561976,31.6752723 5.50219543,31.6187094 5.47902385,31.5620164 C5.45829717,31.5113184 5.43782797,31.4606402 5.4175609,31.4098594 C5.39704567,31.3584442 5.37669528,31.3068293 5.35655391,31.2551098 C5.32828696,31.1825363 5.30048656,31.1098899 5.27309905,31.0370414 C5.26143899,31.0060146 5.24986762,30.9750005 5.23837114,30.9439502 C5.21604453,30.8836599 5.19402092,30.8232783 5.17228079,30.7627616 C5.15567023,30.7165117 5.13929095,30.6703812 5.12307655,30.6241732 C5.07418386,30.4848538 5.02670446,30.3445563 4.98074906,30.2035705 C4.86380771,29.8448031 4.75672472,29.481549 4.65983274,29.1141571 C4.61964963,28.9617829 4.58132475,28.8091324 4.5447656,28.655797 C4.52534722,28.5743508 4.50640488,28.4926174 4.48796528,28.4106936 C4.47615839,28.3582382 4.46461073,28.3059463 4.45326817,28.2535779 C4.39333615,27.9768749 4.33911849,27.6979738 4.29076003,27.4170686 C4.26671671,27.277445 4.24398654,27.1364298 4.22273876,26.9949295 C4.19511622,26.8109712 4.17000635,26.6262537 4.14743611,26.4407524 C4.12847135,26.2848663 4.11132798,26.1287108 4.09599273,25.972025 C4.0924278,25.9355977 4.08897375,25.8992846 4.08561693,25.8629433 C4.07772525,25.7775148 4.0703589,25.6917798 4.06353514,25.6058919 C4.0594138,25.5540221 4.05548121,25.5019694 4.05174825,25.4498615 C4.04698121,25.3833071 4.04255596,25.3169238 4.03845539,25.2504525 C4.03505843,25.1953841 4.03188755,25.1403162 4.02893991,25.085189 C4.02478667,25.0075243 4.02107091,24.9296079 4.01780225,24.8515761 C4.01468521,24.7771391 4.0119837,24.7028779 4.00968812,24.6285144 C4.00324666,24.4198959 4,24.2103271 4,24 C4,23.634179 4.00982162,23.270652 4.02921554,22.9096683 C4.033354,22.8326759 4.03789339,22.7563284 4.04285988,22.6800975 C4.04602688,22.6314682 4.04940401,22.5823851 4.05295791,22.5333511 C4.05718059,22.4750981 4.06163579,22.4171233 4.06633765,22.3592182 C4.07275188,22.2802309 4.07961307,22.2015023 4.08692905,22.1229057 C4.09450797,22.0414685 4.10261271,21.9598169 4.11120701,21.8783112 C4.11758562,21.817824 4.12421202,21.7576076 4.13110514,21.6974723 L4.11120701,21.8783112 C4.14070284,21.598582 4.17596513,21.3205718 4.21687281,21.0444017 C4.25933478,20.7577785 4.30780141,20.4735318 4.36219715,20.1913965 C4.37209081,20.1400797 4.38219641,20.0887543 4.39249795,20.0374997 C4.509199,19.4569027 4.65096703,18.8856554 4.81667205,18.324678 C4.83174942,18.2736369 4.84697049,18.2228599 4.86238744,18.1721682 C4.88028294,18.1133238 4.89852732,18.0543243 4.9170367,17.9954422 C4.96936941,17.8289713 5.02370813,17.6637653 5.08012522,17.4995254 C5.10367083,17.4309796 5.12759307,17.362561 5.15187548,17.2943132 C5.1655461,17.2558909 5.17932148,17.2175487 5.19321045,17.1792608 C5.29975766,16.8855424 5.41298303,16.5950449 5.53270868,16.307936 C5.62170357,16.094501 5.71456753,15.8823351 5.81096824,15.6721286 C5.82543292,15.6405854 5.84020801,15.6085899 5.85506501,15.5766402 C5.93103551,15.4132724 6.00904128,15.2513147 6.08914685,15.0905871 C6.2421445,14.7836362 6.40240796,14.4818672 6.57004574,14.1848125 C6.66373148,14.018983 6.75476069,13.8628545 6.84782529,13.7080889 C6.8809988,13.6529217 6.91442377,13.5979394 6.94810558,13.5431318 C6.96436856,13.5166684 6.98070125,13.4902299 6.9970937,13.4638324 C7.03335192,13.4054408 7.07016948,13.3468297 7.1072816,13.2884241 C7.19623077,13.1484485 7.28654695,13.0101378 7.37851469,12.8730279 C7.63386437,12.4923193 7.90226478,12.1204588 8.18281542,11.7584888 C8.21725157,11.7140579 8.2519922,11.6696221 8.28691604,11.6253375 C8.32732243,11.5741011 8.36793839,11.5231115 8.4087974,11.4723256 C8.41809597,11.4607678 8.42745459,11.4491619 8.4368259,11.4375666 L4,7 L7,4 L44,41 Z M24.1200996,39.9105477 L24,40 C27.653576,40 31.0211328,38.7754061 33.7146059,36.7142827 L29.9106125,32.9098956 C28.5372392,35.6653103 26.5467364,38.0591929 24.1200996,39.9105477 Z M17.363961,27.5355339 L14.5355339,30.363961 L18.7781746,34.6066017 L21.6066017,31.7781746 L17.363961,27.5355339 Z M24,4 C35.045695,4 44,12.954305 44,24 C44,27.2018232 43.2476144,30.2279174 41.9099989,32.9111266 L38.8835517,29.8835954 C39.60407,28.0624325 40,26.0774534 40,24 C40,15.163779 32.8370992,8.00054318 24.0010051,8.00000003 C28.6029164,11.4567444 31.6645123,16.8519858 31.9740928,22.9731069 L15.089,6.089 L15.273924,5.99894375 C15.4554993,5.91076128 15.6386092,5.82524518 15.823203,5.74244635 C15.8667405,5.72291773 15.910376,5.70353345 15.9540935,5.68430109 C15.9916786,5.66776732 16.0289894,5.65149071 16.0663593,5.63532482 C16.1446253,5.60146507 16.2236527,5.56788135 16.3029387,5.5347934 C16.327955,5.52435462 16.3522662,5.51426674 16.3766016,5.50422549 C16.4649998,5.46774705 16.5543549,5.4316313 16.6440278,5.39614514 C16.6725261,5.38486787 16.7008621,5.37373013 16.7292295,5.36265529 C16.7961487,5.33652857 16.8634684,5.31066675 16.9309623,5.28515957 C16.9808223,5.26631812 17.0302567,5.24786224 17.0797832,5.22959677 C17.1433792,5.20614003 17.2077505,5.18277464 17.2722749,5.1597313 C17.3098807,5.14630182 17.3473016,5.13306474 17.3847734,5.11993606 L17.4308132,5.10386897 C17.5336925,5.06810761 17.6369539,5.03316271 17.7405896,4.99904203 L18.0005483,4.9157768 C19.8951157,4.32054326 21.9101244,4 24,4 Z M11,21 C9.34314575,21 8,22.3431458 8,24 C8,25.6568542 9.34314575,27 11,27 C12.6568542,27 14,25.6568542 14,24 C14,22.3431458 12.6568542,21 11,21 Z M19,22 L18,22 L18,26 L23,26 L19,22 Z M14.586,17.586 L14.4644661,17.7071068 L17.2928932,20.5355339 L17.414,20.414 L14.586,17.586 Z" id="Combined-Shape" fill="#FFFFFF" fill-rule="nonzero"></path>
    </g>
</svg>