<?xml version="1.0" encoding="UTF-8"?>
<svg width="48px" height="48px" viewBox="0 0 48 48" version="1.1" xmlns="http://www.w3.org/2000/svg" xmlns:xlink="http://www.w3.org/1999/xlink">
    <title>icon/general/tracking/motion2@2x</title>
    <g id="Icons" stroke="none" stroke-width="1" fill="none" fill-rule="evenodd">
        <g id="icon/general/tracking/motion2" fill="#FFFFFF" fill-rule="nonzero">
            <g id="Group-2" transform="translate(13.171573, 4.201010)">
                <path d="M2.82842712,5.11146681e-13 L9.89949494,7.07106781 L5.657,11.314 L9.89949494,15.5563492 L5.657,19.799 L9.89949494,24.0416306 L5.657,28.284 L9.89949494,32.5269119 L2.82842712,39.5979797 L2.17603713e-14,36.7695526 L4.24258558,32.5258692 L2.82842712,31.1126984 L2.17603713e-14,28.2842712 L4.24238661,24.0407868 L2.829,22.627 L2.08721929e-14,19.7989899 L4.24218765,15.5557044 L2.17603713e-14,11.3137085 L4.2426958,7.06991483 L2.35367281e-14,2.82842712 L2.82842712,5.11146681e-13 Z M16.8284271,5.63993297e-14 L23.8994949,7.07106781 L19.657,11.314 L23.8994949,15.5563492 L19.657,19.799 L23.8994949,24.0416306 L19.657,28.284 L23.8994949,32.5269119 L16.8284271,39.5979797 L14,36.7695526 L18.2425856,32.5258692 L14,28.2842712 L18.2423866,24.0407868 L16.8284271,22.627417 L14,19.7989899 L18.2421877,15.5557044 L16.8284271,14.1421356 L14,11.3137085 L18.2426958,7.06991483 L14,2.82842712 L16.8284271,5.63993297e-14 Z" id="Combined-Shape"></path>
            </g>
        </g>
    </g>
</svg>