<?xml version="1.0" encoding="UTF-8"?>
<svg width="48px" height="48px" viewBox="0 0 48 48" version="1.1" xmlns="http://www.w3.org/2000/svg" xmlns:xlink="http://www.w3.org/1999/xlink">
    <title>icon/surgimap/Multi-Line</title>
    <g id="icon/surgimap/Multi-Line" stroke="none" stroke-width="1" fill="none" fill-rule="evenodd">
        <g id="Group" transform="translate(6, 14)">
            <circle id="Oval" fill="#FFFFFF" cx="4" cy="16" r="4"></circle>
            <circle id="Oval" fill="#FFFFFF" cx="16" cy="4" r="4"></circle>
            <polyline id="Path-23" stroke="#FFFFFF" stroke-width="4" points="4 16 16 4 24 12 32 4"></polyline>
            <circle id="Oval" fill="#FFFFFF" cx="24" cy="12" r="4"></circle>
            <circle id="Oval" fill="#FFFFFF" cx="32" cy="4" r="4"></circle>
        </g>
        <path d="M38,14 C40.209139,14 42,15.790861 42,18 C42,20.209139 40.209139,22 38,22 C37.6421231,22 37.2952233,21.9530016 36.9651359,21.8648402 L33.8648402,24.9651359 C33.9530016,25.2952233 34,25.6421231 34,26 C34,28.209139 32.209139,30 30,30 C27.790861,30 26,28.209139 26,26 C26,25.6417612 26.0470935,25.2945218 26.1354274,24.9641347 L23.0348641,21.8648402 C22.7047767,21.9530016 22.3578769,22 22,22 C21.6417612,22 21.2945218,21.9529065 20.9641347,21.8645726 L13.8648402,28.9651359 C13.9530016,29.2952233 14,29.6421231 14,30 C14,32.209139 12.209139,34 10,34 C7.790861,34 6,32.209139 6,30 C6,27.790861 7.790861,26 10,26 C10.3578769,26 10.7047767,26.0469984 11.0348641,26.1351598 L18.1354274,19.0358653 C18.0470935,18.7054782 18,18.3582388 18,18 C18,15.790861 19.790861,14 22,14 C24.209139,14 26,15.790861 26,18 C26,18.3578769 25.9530016,18.7047767 25.8648402,19.0348641 L28.9651359,22.1351598 C29.2952233,22.0469984 29.6421231,22 30,22 C30.3582388,22 30.7054782,22.0470935 31.0358653,22.1354274 L34.1351598,19.0348641 C34.0469984,18.7047767 34,18.3578769 34,18 C34,15.790861 35.790861,14 38,14 Z" id="Combined-Shape" fill="#FFFFFF" fill-rule="nonzero"></path>
    </g>
</svg>