<?xml version="1.0" encoding="UTF-8"?>
<svg width="48px" height="48px" viewBox="0 0 48 48" version="1.1" xmlns="http://www.w3.org/2000/svg" xmlns:xlink="http://www.w3.org/1999/xlink">
    <title>icon/cranial/orientation-RL</title>
    <g id="icon/cranial/orientation-RL" stroke="none" stroke-width="1" fill="none" fill-rule="evenodd">
        <path d="M40,8 C42.209139,8 44,9.790861 44,12 L44,36 C44,38.209139 42.209139,40 40,40 L8,40 C5.790861,40 4,38.209139 4,36 L4,12 C4,9.790861 5.790861,8 8,8 L40,8 Z M40,12 L8,12 L8,35 L40,35 L40,12 Z M16.6171875,17.625 C17.9661458,17.625 19.0208333,17.9244792 19.78125,18.5234375 C20.5416667,19.1223958 20.921875,19.96875 20.921875,21.0625 C20.921875,21.8541667 20.7617188,22.5104167 20.4414062,23.03125 C20.1210938,23.5520833 19.6197917,23.9739583 18.9375,24.296875 L21.3125,28.8828125 L21.3125,29 L18.375,29 L16.3671875,24.984375 L14.8828125,24.984375 L14.8828125,29 L12.140625,29 L12.140625,17.625 L16.6171875,17.625 Z M31.9296875,17.625 L31.9296875,26.890625 L36.703125,26.890625 L36.703125,29 L29.1875,29 L29.1875,17.625 L31.9296875,17.625 Z M16.6171875,19.7421875 L14.8828125,19.7421875 L14.8828125,22.8671875 L16.6171875,22.8671875 C17.1380208,22.8671875 17.5299479,22.7304688 17.7929688,22.4570312 C18.0559896,22.1835938 18.1875,21.8020833 18.1875,21.3125 C18.1875,20.8229167 18.0546875,20.4388021 17.7890625,20.1601562 C17.5234375,19.8815104 17.1328125,19.7421875 16.6171875,19.7421875 Z" id="Combined-Shape" fill="#FFFFFF" fill-rule="nonzero"></path>
    </g>
</svg>