<?xml version="1.0" encoding="UTF-8"?>
<svg width="48px" height="48px" viewBox="0 0 48 48" version="1.1" xmlns="http://www.w3.org/2000/svg" xmlns:xlink="http://www.w3.org/1999/xlink">
    <title>icon/register-off</title>
    <g id="icon/register-off" stroke="none" stroke-width="1" fill="none" fill-rule="evenodd">
        <path d="M41,4 L44,7 L36.7101047,14.2913211 C38.3901601,16.4855549 39.5157631,19.1256809 39.8757074,22.0004927 L44,22 L44,26 L39.8755822,26.000507 C38.9703189,33.2269847 33.2269847,38.9703189 26.000507,39.8755822 L26,44 L22,44 L22.0004927,39.8757074 C19.1256809,39.5157631 16.4855549,38.3901601 14.2913211,36.7101047 L7,44 L4,41 L41,4 Z M20.0474687,30.9532471 L17.1517466,33.8491695 C18.5746128,34.8415165 20.2215897,35.5337584 22.0001438,35.8333615 L22.0003075,31.7468613 C21.3089877,31.5682216 20.6535697,31.2992117 20.0474687,30.9532471 Z M35.8331932,26.000855 L31.7466026,26.0006936 C31.0211205,28.8067332 28.8067332,31.0211205 26.0006936,31.7466026 L26.000855,35.8331932 C31.017819,34.9876317 34.9876317,31.017819 35.8331932,26.000855 Z M26,4 L26.000507,8.12441784 C27.35354,8.29391272 28.6545798,8.63301144 29.8816058,9.11969345 L26.695635,12.3052611 C26.4664589,12.2524569 26.2347954,12.2062353 26.000855,12.1668068 L26,13 L13,26 L12.1668068,26.000855 C12.2062353,26.2347954 12.2524569,26.4664589 12.3052611,26.695635 L9.11969345,29.8816058 C8.63301144,28.6545798 8.29391272,27.35354 8.12441784,26.000507 L4,26 L4,22 L8.12429264,22.0004927 C9.0291931,14.7732118 14.7732118,9.0291931 22.0004927,8.12429264 L22,4 L26,4 Z M27.89862,23.1033205 L23.1033205,27.89862 C23.3916817,27.9649471 23.6918345,28 24,28 C26.2051429,28 28,26.2051429 28,24 C28,23.6918345 27.9649471,23.3916817 27.89862,23.1033205 Z M12.1666385,22.0001438 L16.2531387,22.0003075 C16.9784391,19.1934598 19.1934598,16.9784391 22.0003075,16.2531387 L22.0001438,12.1666385 C16.982375,13.0118976 13.0118976,16.982375 12.1666385,22.0001438 Z M33.8491695,17.1517466 L30.9532471,20.0474687 C31.2992117,20.6535697 31.5682216,21.3089877 31.7468613,22.0003075 L35.8333615,22.0001438 C35.5337584,20.2215897 34.8415165,18.5746128 33.8491695,17.1517466 Z" id="Icon" fill="#FFFFFF" fill-rule="nonzero"></path>
    </g>
</svg>