<svg xmlns="http://www.w3.org/2000/svg" width="48" height="48" viewBox="0 0 48 48">
    <g fill="none" fill-rule="evenodd">
        <g fill="#FFF" fill-rule="nonzero">
            <g>
                <g>
                    <g>
                        <g>
                            <g>
                                <path d="M8.476 35.222l3.857 1.125C12.114 37.532 12 38.752 12 40H8c0-1.636.164-3.234.476-4.778zm3.188-7.974l3.214 2.41c-.548.905-1.026 1.857-1.427 2.848l-3.857-1.125c.558-1.45 1.254-2.833 2.07-4.133zM30 10l8 8-8 8v-5.901c-5.017.498-9.489 2.85-12.72 6.361l-3.214-2.41c3.981-4.473 9.61-7.446 15.935-7.968L30 10z" transform="translate(-566 -898) translate(0 64) translate(8 8) translate(558 823) matrix(0 1 1 0 0 3)"/>
                            </g>
                        </g>
                    </g>
                </g>
            </g>
        </g>
    </g>
</svg>
