<?xml version="1.0" encoding="UTF-8"?>
<svg width="48px" height="48px" viewBox="0 0 48 48" version="1.1" xmlns="http://www.w3.org/2000/svg" xmlns:xlink="http://www.w3.org/1999/xlink">
    <title>icon/general/view/show-off-slice-trajectory</title>
    <g id="icon/general/view/show-off-slice-trajectory" stroke="none" stroke-width="1" fill="none" fill-rule="evenodd">
        <path d="M19.6905123,32.999352 L15.6720178,38.4111533 C15.883036,38.8981771 16,39.4354294 16,40 C16,42.209139 14.209139,44 12,44 C9.790861,44 8,42.209139 8,40 C8,37.790861 9.790861,36 12,36 C12.1558584,36 12.3096349,36.0089141 12.4608473,36.0262602 L14.7095123,32.999352 L19.6905123,32.999352 Z M26.451,12.999542 L21.251,19.999542 L15.4648015,19.9998796 C14.7731656,18.8043432 13.480515,18 12,18 C9.790861,18 8,19.790861 8,22 C8,24.209139 9.790861,26 12,26 C13.480515,26 14.7731656,25.1956568 15.4648015,24.0001204 L40,24 L40,20 L32.462,19.999542 L37.662,12.999542 L42,13 C43.1045695,13 44,13.8954305 44,15 L44,29 C44,30.1045695 43.1045695,31 42,31 L6,31 C4.8954305,31 4,30.1045695 4,29 L4,15 C4,13.8954305 4.8954305,13 6,13 L26.451,12.999542 Z M36.3945123,3.807352 L39.6054877,6.192648 L27.8625123,21.999352 L22.8805123,21.999352 L36.3945123,3.807352 Z" id="icon" fill="#FFFFFF" fill-rule="nonzero"></path>
    </g>
</svg>